<svg width="3016" height="242" viewBox="0 0 3016 242" fill="none" xmlns="http://www.w3.org/2000/svg">
<g clip-path="url(#clip0_113_1732)">
<path d="M2376.29 115.525C2366.44 110.517 2353.79 105.169 2338.43 99.4823C2327.99 95.8323 2319.75 92.5219 2313.73 89.7208C2307.7 86.9197 2302.69 83.5244 2298.7 79.7047C2294.71 75.8849 2292.76 71.1315 2292.76 65.7839C2292.76 58.8236 2296.16 53.3911 2302.95 49.6563C2309.74 45.8365 2318.23 43.9691 2328.58 43.9691C2331.47 43.9691 2333.76 44.054 2335.29 44.2238C2346.58 44.9877 2357.87 48.2133 2369.32 53.9853C2380.78 59.7573 2389.78 67.142 2396.4 76.2245V17.4858C2379.77 5.85689 2357.95 0 2330.96 0C2313.47 0 2298.36 2.97089 2285.46 8.91266C2272.56 14.8544 2262.71 22.7485 2255.75 32.7646C2248.88 42.7808 2245.4 53.9853 2245.4 66.3781C2245.4 80.7232 2248.96 92.6068 2256.18 102.029C2263.39 111.451 2271.88 118.751 2281.81 124.013C2291.66 129.276 2304.39 134.793 2319.92 140.565C2330.19 144.47 2338.26 147.78 2344.2 150.582C2350.14 153.383 2354.98 156.693 2358.88 160.513C2362.79 164.332 2364.74 168.831 2364.74 174.009C2364.74 182.328 2359.9 188.439 2350.31 192.344C2340.72 196.248 2329.68 198.201 2317.29 198.201C2300.99 198.201 2286.82 195.06 2274.85 188.779C2262.8 182.497 2253.55 173.415 2246.92 161.616V224.175C2267.47 235.973 2291.91 242 2320.26 242.17C2338.34 242.17 2354.22 239.199 2368.14 233.257C2381.97 227.315 2392.84 218.997 2400.56 208.217C2408.29 197.437 2412.19 184.959 2412.19 170.868C2412.19 156.778 2408.71 145.743 2401.75 136.661C2394.79 127.663 2386.3 120.618 2376.46 115.61L2376.29 115.525Z" fill="#F9DCC5"/>
<path d="M2534.51 20.6265C2536.37 14.4301 2539.43 8.99764 2543.67 4.3291H2473.31C2477.55 8.99764 2480.61 14.4301 2482.47 20.6265C2484.34 26.823 2485.27 32.0857 2485.27 36.3298V205.076C2485.27 209.32 2484.34 214.583 2482.47 220.779C2480.61 226.976 2477.55 232.408 2473.31 237.077H2543.67C2539.43 232.408 2536.37 226.976 2534.51 220.779C2532.64 214.583 2531.79 209.32 2531.79 205.076V36.3298C2531.79 32.0857 2532.72 26.823 2534.51 20.6265Z" fill="#F9DCC5"/>
<path d="M2783.98 217.299C2777.61 208.217 2770.65 197.012 2763.35 183.856L2745.61 149.818C2762.08 142.433 2773.54 132.587 2779.9 120.279C2786.27 107.971 2789.49 93.7952 2789.49 77.6676V76.8188C2789.49 63.8317 2786.01 51.7784 2779.05 40.7437C2772.09 29.709 2762.33 20.8812 2749.85 14.2604C2737.38 7.63952 2723.37 4.3291 2707.84 4.3291H2613.02C2616.5 8.2337 2619.39 13.6662 2621.6 20.6265C2623.8 27.5869 2624.99 32.8496 2625.25 36.3298V205.076C2625.25 216.875 2621.17 227.57 2613.02 237.077H2683.39C2678.89 232.069 2675.84 226.976 2674.05 221.798C2672.36 216.62 2671.42 211.103 2671.42 205.076V173.67L2701.98 164.672L2728.72 215.856C2730.25 219.761 2731.01 223.75 2731.01 227.74C2731.01 231.729 2729.91 234.955 2727.78 237.077H2805.79C2797.64 233.003 2790.34 226.382 2783.98 217.299ZM2743.23 82.9303C2743.23 90.9093 2740.77 97.6998 2735.93 103.302C2731.09 108.904 2723.88 112.894 2714.37 115.271L2671.34 126.305V48.2982H2710.04C2720.14 48.2982 2728.21 51.1842 2734.15 56.8714C2740.18 62.5585 2743.15 70.0281 2743.15 79.1106V82.9303H2743.23Z" fill="#F9DCC5"/>
<path d="M2983.62 48.2982C2991.17 48.2982 2997.37 48.8075 3002.12 49.911C3006.88 51.0145 3011.46 53.6458 3015.96 57.89L3006.03 4.3291H2851.29C2859.27 13.4115 2863.17 24.1916 2863.17 36.5845V209.66C2862.24 219.931 2858.25 229.098 2851.29 236.992H3004.93L3015.96 183.431C3012.31 187.675 3007.73 190.392 3002.29 191.41C2996.86 192.429 2990.41 193.023 2982.77 193.023L2909.77 193.278V142.093H2969.7C2974.71 142.093 2979.38 142.433 2983.53 143.112C2987.69 143.791 2991.85 145.404 2995.93 147.95V92.3523C2991.85 94.8987 2987.69 96.5115 2983.53 97.1906C2979.38 97.8696 2974.62 98.2091 2969.44 98.2091H2909.86V48.2134H2983.79L2983.62 48.2982Z" fill="#F9DCC5"/>
<path d="M143.876 19.1827C126.73 9.42123 107.291 4.49805 85.5615 4.49805H0C5.00807 9.50611 8.82778 19.4374 11.3743 34.2069V207.622C8.82778 222.391 5.09295 232.238 0 237.331H85.5615C107.291 237.331 126.73 232.408 143.876 222.646C161.022 212.885 174.434 199.303 184.025 181.902C193.617 164.586 198.455 145.063 198.455 123.588V118.325C198.455 96.7653 193.702 77.3272 184.025 60.0112C174.434 42.6103 161.022 29.114 143.876 19.2676V19.1827ZM151.855 122.909C151.855 145.403 145.828 162.804 133.86 175.027C121.806 187.25 104.66 193.362 82.336 193.362H57.6352V48.3823H82.336C104.66 48.3823 121.806 54.5787 133.86 66.8867C145.913 79.1946 151.855 96.5107 151.855 118.835V122.909Z" fill="#F9DCC5"/>
<path d="M604.194 206.094V94.6433L664.715 191.834L725.236 94.6433V206.349C725.067 210.423 723.878 215.686 721.756 222.052C719.634 228.418 716.748 233.511 713.013 237.161H783.72C780.07 233.511 777.1 228.333 774.808 221.712C772.601 215.092 771.497 209.914 771.497 206.009V35.6499C771.497 31.7453 772.601 26.5675 774.808 19.9467C777.015 13.3258 779.986 8.23288 783.72 4.49805H718.276C720.228 7.38405 721.162 10.3549 721.162 13.2409C721.162 15.9572 720.228 19.1827 718.276 22.8327L664.715 111.026L610.56 22.3234C608.778 19.013 607.929 16.0421 607.929 13.3258C607.929 10.4398 608.862 7.46893 610.815 4.58293H545.625C549.53 8.48752 552.5 13.5805 554.623 20.0315C556.745 26.3977 557.848 31.7453 557.848 36.0743V206.264C557.848 210.338 556.745 215.601 554.623 221.967C552.5 228.333 549.445 233.511 545.625 237.416H616.077C612.343 233.766 609.457 228.588 607.335 221.967C605.213 215.346 604.109 210.168 604.109 206.264L604.194 206.094Z" fill="#F9DCC5"/>
<path d="M914.185 20.7955C916.052 14.5991 919.108 9.16658 923.352 4.49805H852.899C857.144 9.16658 860.199 14.5991 862.067 20.7955C863.934 26.9919 864.868 32.2546 864.868 36.4988V205.245C864.868 209.489 863.934 214.752 862.067 220.948C860.199 227.145 857.144 232.577 852.899 237.246H923.352C919.108 232.577 916.052 227.145 914.185 220.948C912.317 214.752 911.383 209.489 911.383 205.245V36.4988C911.383 32.2546 912.317 26.9919 914.185 20.7955Z" fill="#F9DCC5"/>
<path d="M1188.95 4.49805H1118.58C1126.31 14.1747 1130.38 24.8698 1130.8 36.4988V138.612L1059.25 25.1245C1056.7 20.2862 1055.43 16.2118 1055.43 12.9014C1055.43 10.0154 1056.28 7.21429 1058.06 4.49805H992.616C998.643 10.5247 1002.72 20.8804 1004.84 35.6499V205.245C1004.67 211.272 1003.57 216.874 1001.61 221.967C999.661 227.145 996.691 232.238 992.616 237.246H1062.98C1058.91 231.983 1055.94 226.89 1053.99 221.797C1052.03 216.789 1051.1 211.187 1051.1 205.245V96.1711L1125.63 213.394C1127.41 216.874 1128.26 220.269 1128.26 223.58C1128.26 226.466 1127.75 229.182 1126.65 231.559C1125.54 234.02 1124.27 235.888 1122.74 237.246H1189.12C1185.04 231.983 1181.99 226.89 1180.12 221.967C1178.17 217.044 1177.24 211.526 1177.24 205.5V36.4988C1177.24 25.0396 1181.23 14.3444 1189.2 4.49805H1188.95Z" fill="#F9DCC5"/>
<path d="M1319.41 20.7955C1321.28 14.5991 1324.34 9.16658 1328.58 4.49805H1258.21C1262.46 9.16658 1265.51 14.5991 1267.38 20.7955C1269.25 26.9919 1270.18 32.2546 1270.18 36.4988V205.245C1270.18 209.489 1269.25 214.752 1267.38 220.948C1265.51 227.145 1262.46 232.577 1258.21 237.246H1328.58C1324.34 232.577 1321.28 227.145 1319.41 220.948C1317.55 214.752 1316.61 209.489 1316.61 205.245V36.4988C1316.61 32.2546 1317.55 26.9919 1319.41 20.7955Z" fill="#F9DCC5"/>
<path d="M1816.66 36.4988V164.247C1816.66 173.924 1813.35 181.902 1806.81 188.099C1800.19 194.295 1791.87 197.436 1781.77 197.436H1775.66C1765.56 197.436 1757.32 194.38 1750.79 188.099C1744.25 181.902 1741.03 173.924 1741.03 164.247V36.4988C1741.03 24.2757 1745.01 13.5805 1752.99 4.49805H1682.63C1690.35 13.4107 1694.42 24.1059 1694.85 36.4988V162.21C1694.85 177.319 1698.33 190.9 1705.2 202.953C1712.08 215.007 1721.67 224.344 1733.9 231.134C1746.12 237.925 1759.95 241.32 1775.49 241.32H1782.45C1797.73 241.32 1811.56 237.925 1823.87 231.134C1836.18 224.344 1845.77 214.922 1852.65 202.953C1859.52 190.985 1863 177.319 1863 162.21V36.4988C1863.43 23.8513 1867.5 13.2409 1875.22 4.49805H1804.52C1812.24 13.2409 1816.32 23.9361 1816.74 36.4988H1816.66Z" fill="#F9DCC5"/>
<path d="M2067.91 193.277L1994.91 193.531V142.347H2054.83C2059.84 142.347 2064.51 142.687 2068.67 143.366C2072.83 144.045 2076.99 145.658 2081.06 148.204V92.606C2076.99 95.1525 2072.83 96.7652 2068.67 97.4443C2064.51 98.1234 2059.76 98.4629 2054.58 98.4629H1994.91V48.3822H2068.84C2076.4 48.3822 2082.59 48.8915 2087.35 49.995C2092.1 51.0985 2096.68 53.7298 2101.18 57.9739L2091.33 4.41309H1936.51C1944.49 13.4955 1948.48 24.2756 1948.48 36.7533V209.829C1947.54 220.1 1943.55 229.267 1936.51 237.161H2090.15L2101.18 183.6C2097.53 187.844 2092.95 190.56 2087.51 191.579C2082.08 192.682 2075.63 193.192 2067.99 193.192L2067.91 193.277Z" fill="#F9DCC5"/>
<path d="M308.887 224.599C290.553 213.819 276.038 199.304 265.428 180.969C254.732 162.635 249.47 142.517 249.47 120.618C249.47 98.7181 254.817 78.8556 265.428 60.5209C276.123 42.1863 290.553 27.6714 308.887 16.8913C327.222 6.11127 347.424 0.763672 369.578 0.763672C391.733 0.763672 411.001 6.19615 429.336 17.0611C447.67 27.9261 462.185 42.5259 472.965 60.8605C483.745 79.1951 489.093 99.1425 489.093 120.618C489.093 142.093 483.745 162.38 472.965 180.884C462.185 199.304 447.67 213.904 429.336 224.684C411.001 235.464 391.054 240.811 369.578 240.811C348.103 240.811 327.222 235.464 308.887 224.684V224.599ZM407.266 186.656C418.386 179.866 427.129 170.614 433.41 158.985C439.691 147.356 442.832 134.538 442.832 120.618C442.832 106.697 439.691 93.8798 433.41 82.3357C427.129 70.7917 418.386 61.6244 407.266 54.8338C396.147 48.0432 383.584 44.6479 369.578 44.6479C355.573 44.6479 342.756 47.9583 331.466 54.6641C320.177 61.3698 311.434 70.5371 305.153 82.166C298.871 93.7949 295.731 106.612 295.731 120.533C295.731 134.454 298.871 147.271 305.153 158.9C311.434 170.529 320.262 179.781 331.466 186.571C342.756 193.362 355.403 196.757 369.578 196.757C383.754 196.757 396.062 193.362 407.266 186.571V186.656Z" fill="#F9DCC5"/>
<path d="M369.239 89.8056C364.74 104.575 353.026 116.204 338.257 120.618C353.026 125.117 364.655 136.746 369.154 151.6C373.653 136.915 385.282 125.286 399.882 120.788H400.051C385.282 116.204 373.653 104.49 369.154 89.7207L369.239 89.8056Z" fill="#F9DCC5"/>
<path d="M1619.73 218.827L1600.37 192.683C1603.18 188.863 1605.89 184.959 1608.35 180.799C1619.13 162.38 1624.48 142.263 1624.48 120.533C1624.48 98.8029 1619.13 79.1101 1608.35 60.7755C1597.57 42.4409 1583.06 27.8411 1564.72 16.9762C1546.39 6.11119 1526.44 0.678711 1504.97 0.678711C1483.49 0.678711 1462.61 6.02631 1444.28 16.8064C1425.94 27.5865 1411.43 42.1014 1400.82 60.436C1390.12 78.7706 1384.86 98.8029 1384.86 120.533C1384.86 142.263 1390.21 162.55 1400.82 180.884C1411.51 199.219 1425.94 213.734 1444.28 224.514C1462.61 235.294 1482.81 240.642 1504.97 240.642C1527.12 240.642 1546.39 235.294 1564.72 224.514C1566.08 223.75 1567.27 222.731 1568.63 221.882L1579.92 237.161H1643.15C1643.15 237.161 1631.02 233.936 1619.73 218.742V218.827ZM1571.26 153.467L1546.9 120.618H1493.42L1542.4 186.656C1531.28 193.362 1518.8 196.757 1504.88 196.757C1490.96 196.757 1478.06 193.362 1466.77 186.571C1455.48 179.781 1446.74 170.529 1440.46 158.9C1434.17 147.271 1431.03 134.454 1431.03 120.533C1431.03 106.612 1434.17 93.7948 1440.46 82.1659C1446.74 70.537 1455.56 61.3697 1466.77 54.664C1477.97 47.9583 1490.71 44.6478 1504.88 44.6478C1519.06 44.6478 1531.36 48.0431 1542.57 54.8337C1553.69 61.6243 1562.43 70.7917 1568.71 82.3357C1574.99 93.8797 1578.13 106.612 1578.13 120.618C1578.13 132.416 1575.76 143.366 1571.17 153.552L1571.26 153.467Z" fill="#F9DCC5"/>
</g>
<defs>
<clipPath id="clip0_113_1732">
<rect width="3015.87" height="242" fill="white"/>
</clipPath>
</defs>
</svg>
