<svg width="77" height="48" viewBox="0 0 77 48" fill="none" xmlns="http://www.w3.org/2000/svg">
<g clip-path="url(#clip0_103_14055)">
<path d="M17.2862 37.5061C16.465 37.0909 15.4103 36.6475 14.1291 36.1759C13.2585 35.8733 12.5719 35.5988 12.0693 35.3665C11.5667 35.1343 11.1491 34.8528 10.8164 34.536C10.4837 34.2193 10.3209 33.8252 10.3209 33.3818C10.3209 32.8047 10.604 32.3542 11.1703 32.0445C11.7366 31.7278 12.4445 31.573 13.308 31.573C13.5487 31.573 13.7398 31.58 13.8672 31.5941C14.8087 31.6575 15.7501 31.9249 16.7057 32.4035C17.6613 32.8821 18.4116 33.4944 18.9638 34.2475V29.3771C17.5764 28.4129 15.7572 27.9272 13.5062 27.9272C12.0481 27.9272 10.7881 28.1736 9.71215 28.6662C8.63622 29.1589 7.81511 29.8135 7.23467 30.644C6.66131 31.4745 6.37109 32.4035 6.37109 33.4311C6.37109 34.6205 6.66839 35.6058 7.27006 36.3871C7.87174 37.1683 8.57959 37.7736 9.40777 38.2099C10.2289 38.6463 11.2907 39.1038 12.586 39.5824C13.4425 39.9061 14.115 40.1806 14.6105 40.4129C15.106 40.6451 15.5094 40.9196 15.8351 41.2363C16.1607 41.5531 16.3235 41.9261 16.3235 42.3554C16.3235 43.0451 15.92 43.5519 15.1201 43.8756C14.3203 44.1994 13.4001 44.3613 12.3666 44.3613C11.0075 44.3613 9.82541 44.1009 8.82734 43.58C7.82219 43.0592 7.05063 42.3061 6.49851 41.3278V46.5149C8.21151 47.4932 10.2501 47.9929 12.6143 48.007C14.1221 48.007 15.4457 47.7607 16.6066 47.268C17.7604 46.7753 18.6665 46.0856 19.3106 45.1918C19.9548 44.2979 20.2804 43.2633 20.2804 42.095C20.2804 40.9267 19.9901 40.0117 19.4097 39.2586C18.8293 38.5126 18.1214 37.9284 17.3003 37.5132L17.2862 37.5061Z" fill="#FF2F2F"/>
<path d="M30.4884 29.6448C30.6441 29.131 30.8989 28.6806 31.2528 28.2935H25.3848C25.7387 28.6806 25.9935 29.131 26.1492 29.6448C26.305 30.1586 26.3828 30.5949 26.3828 30.9468V44.9386C26.3828 45.2905 26.305 45.7269 26.1492 46.2407C25.9935 46.7545 25.7387 47.2049 25.3848 47.592H31.2528C30.8989 47.2049 30.6441 46.7545 30.4884 46.2407C30.3326 45.7269 30.2619 45.2905 30.2619 44.9386V30.9468C30.2619 30.5949 30.3397 30.1586 30.4884 29.6448Z" fill="#FF2F2F"/>
<path d="M51.2835 45.9521C50.7526 45.199 50.1721 44.27 49.5634 43.1791L48.084 40.3568C49.4572 39.7445 50.4128 38.9281 50.9437 37.9075C51.4746 36.887 51.7436 35.7116 51.7436 34.3744V34.304C51.7436 33.2272 51.4533 32.2278 50.8729 31.3128C50.2925 30.3979 49.4784 29.6659 48.4379 29.1169C47.3974 28.5679 46.2294 28.2935 44.934 28.2935H37.0273C37.3176 28.6172 37.5582 29.0676 37.7423 29.6448C37.9263 30.2219 38.0254 30.6583 38.0466 30.9468V44.9386C38.0466 45.9169 37.7069 46.8037 37.0273 47.592H42.8954C42.5203 47.1767 42.2654 46.7545 42.1168 46.3251C41.9752 45.8958 41.8974 45.4383 41.8974 44.9386V42.3345L44.4456 41.5885L46.6754 45.8325C46.8028 46.1562 46.8665 46.487 46.8665 46.8178C46.8665 47.1486 46.7744 47.416 46.5975 47.592H53.1026C52.4231 47.2542 51.8143 46.7052 51.2835 45.9521ZM47.8858 34.8108C47.8858 35.4723 47.6805 36.0354 47.277 36.4999C46.8735 36.9644 46.2719 37.2952 45.4791 37.4923L41.8903 38.4072V31.9462H45.1181C45.9604 31.9462 46.6329 32.1855 47.1284 32.6571C47.6309 33.1286 47.8787 33.748 47.8787 34.5011V34.8178L47.8858 34.8108Z" fill="#FF2F2F"/>
<path d="M67.9338 31.9319C68.5638 31.9319 69.0806 31.9741 69.4769 32.0656C69.8733 32.1571 70.2556 32.3753 70.6307 32.7272L69.8026 28.2861H56.8984C57.5638 29.0392 57.8894 29.9331 57.8894 30.9606V45.3114C57.8116 46.163 57.4789 46.9231 56.8984 47.5776H69.7105L70.6307 43.1366C70.3264 43.4885 69.9441 43.7137 69.4911 43.7982C69.0381 43.8826 68.5001 43.9319 67.863 43.9319L61.7755 43.953V39.709H66.773C67.1906 39.709 67.5799 39.7372 67.9268 39.7935C68.2736 39.8498 68.6204 39.9835 68.9602 40.1946V35.5847C68.6204 35.7958 68.2736 35.9295 67.9268 35.9858C67.5799 36.0421 67.1835 36.0703 66.7517 36.0703H61.7826V31.9248H67.948L67.9338 31.9319Z" fill="#FF2F2F"/>
<path d="M11.9981 1.534C10.5682 0.724617 8.94723 0.316406 7.13514 0.316406H0C0.417632 0.731656 0.736165 1.55512 0.94852 2.77975V17.1586C0.736165 18.3833 0.42471 19.1997 0 19.622H7.13514C8.94723 19.622 10.5682 19.2138 11.9981 18.4044C13.4279 17.595 14.5463 16.4689 15.3462 15.0261C16.1461 13.5903 16.5495 11.9715 16.5495 10.1909V9.75453C16.5495 7.96685 16.1532 6.35512 15.3462 4.91934C14.5463 3.47652 13.4279 2.35746 11.9981 1.54104V1.534ZM12.6634 10.1346C12.6634 11.9997 12.1609 13.4425 11.1628 14.456C10.1577 15.4695 8.7278 15.9762 6.86615 15.9762H4.80631V3.95512H6.86615C8.7278 3.95512 10.1577 4.4689 11.1628 5.48943C12.168 6.50996 12.6634 7.94573 12.6634 9.79676V10.1346Z" fill="#FF2F2F"/>
<path d="M50.3842 17.0322V7.7911L55.4311 15.8497L60.4781 7.7911V17.0533C60.464 17.3911 60.3649 17.8275 60.1879 18.3553C60.0109 18.8832 59.7703 19.3055 59.4588 19.6081H65.3552C65.0508 19.3055 64.8031 18.8761 64.612 18.3272C64.4279 17.7782 64.3359 17.3489 64.3359 17.0251V2.89256C64.3359 2.56881 64.4279 2.13948 64.612 1.59051C64.796 1.04154 65.0438 0.619248 65.3552 0.30957H59.8977C60.0605 0.548867 60.1384 0.795201 60.1384 1.0345C60.1384 1.25972 60.0605 1.52717 59.8977 1.8298L55.4311 9.14242L50.9151 1.78758C50.7664 1.51309 50.6956 1.26676 50.6956 1.04154C50.6956 0.802239 50.7735 0.555905 50.9363 0.316608H45.5C45.8256 0.640362 46.0734 1.06265 46.2503 1.59755C46.4273 2.12541 46.5193 2.56881 46.5193 2.92775V17.0392C46.5193 17.377 46.4273 17.8134 46.2503 18.3412C46.0734 18.8691 45.8185 19.2984 45.5 19.6222H51.3752C51.0637 19.3195 50.823 18.8902 50.6461 18.3412C50.4691 17.7923 50.3771 17.3629 50.3771 17.0392L50.3842 17.0322Z" fill="#FF2F2F"/>
<path d="M76.2357 1.66089C76.3914 1.14711 76.6462 0.696667 77.0002 0.30957H71.125C71.4789 0.696667 71.7337 1.14711 71.8895 1.66089C72.0452 2.17467 72.1231 2.61104 72.1231 2.96294V16.9547C72.1231 17.3066 72.0452 17.743 71.8895 18.2568C71.7337 18.7706 71.4789 19.221 71.125 19.6081H77.0002C76.6462 19.221 76.3914 18.7706 76.2357 18.2568C76.08 17.743 76.0021 17.3066 76.0021 16.9547V2.96998C76.0021 2.61807 76.08 2.18171 76.2357 1.66793V1.66089Z" fill="#FF2F2F"/>
<path d="M25.7596 18.5664C24.2307 17.6725 23.0203 16.469 22.1354 14.9488C21.2436 13.4285 20.8047 11.7605 20.8047 9.94467C20.8047 8.12883 21.2506 6.48191 22.1354 4.96168C23.0273 3.44144 24.2307 2.23792 25.7596 1.34408C27.2886 0.450238 28.9733 0.00683594 30.8208 0.00683594C32.6683 0.00683594 34.2751 0.457276 35.804 1.35816C37.333 2.25904 38.5434 3.46959 39.4424 4.98983C40.3414 6.51006 40.7873 8.16402 40.7873 9.94467C40.7873 11.7253 40.3414 13.4074 39.4424 14.9417C38.5434 16.469 37.333 17.6796 35.804 18.5734C34.2751 19.4672 32.6116 19.9107 30.8208 19.9107C29.0299 19.9107 27.2886 19.4672 25.7596 18.5734V18.5664ZM33.9636 15.4203C34.8909 14.8573 35.62 14.0901 36.1438 13.1259C36.6676 12.1617 36.9295 11.0989 36.9295 9.94467C36.9295 8.79041 36.6676 7.72766 36.1438 6.77047C35.62 5.81329 34.8909 5.05317 33.9636 4.49012C33.0363 3.92707 31.9887 3.64555 30.8208 3.64555C29.6528 3.64555 28.584 3.92003 27.6425 4.47604C26.7011 5.03206 25.972 5.79217 25.4482 6.7564C24.9244 7.72062 24.6625 8.78338 24.6625 9.93763C24.6625 11.0919 24.9244 12.1546 25.4482 13.1189C25.972 14.0831 26.7082 14.8502 27.6425 15.4133C28.584 15.9763 29.6387 16.2579 30.8208 16.2579C32.0029 16.2579 33.0293 15.9763 33.9636 15.4133V15.4203Z" fill="#FF2F2F"/>
<path d="M30.7926 7.38985C30.4175 8.61448 29.4406 9.57871 28.209 9.94469C29.4406 10.3177 30.4104 11.2819 30.7856 12.5136C31.1607 11.296 32.1305 10.3318 33.348 9.95877H33.3621C32.1305 9.57871 31.1607 8.60745 30.7856 7.38281L30.7926 7.38985Z" fill="#FF2F2F"/>
</g>
<defs>
<clipPath id="clip0_103_14055">
<rect width="77" height="48" fill="white"/>
</clipPath>
</defs>
</svg>
